# xmcd
#
# Track frame offsets: 
#        150
#        16227
#        30640
#        46785
#
# Disc length: 812 seconds
#
# Revision: 3
# Processed by: cddbd v1.5.2PL0 Copyright (c) Steve Scherf et al.
# Submitted via: ExactAudioCopy v0.95b4
#
DISCID=22032a04
DTITLE=Puffy - «Õ«—«}∆„ de «Á«Ô«Ã
DYEAR=1998
DGENRE=JPop
TTITLE0=«Õ«—«}∆„ de «Á«Ô«Ã
TTITLE1=Peace
TTITLE2=«Õ«—«}∆„ de «Á«Ô«Ã («¶«Ê«¥«∆«Á.«ß«Â«¶«≠)
TTITLE3=Peace («¶«Ê«¥«∆«Á.«ß«Â«¶«≠)
EXTD=Updated for correct listing with Latin Alphabet
EXTT0=
EXTT1=
EXTT2=
EXTT3=
PLAYORDER=
